G04 #@! TF.GenerationSoftware,KiCad,Pcbnew,9.0.4*
G04 #@! TF.CreationDate,2026-04-05T12:23:48-05:00*
G04 #@! TF.ProjectId,Fault Latch 2,4661756c-7420-44c6-9174-636820322e6b,rev?*
G04 #@! TF.SameCoordinates,Original*
G04 #@! TF.FileFunction,Paste,Top*
G04 #@! TF.FilePolarity,Positive*
%FSLAX46Y46*%
G04 Gerber Fmt 4.6, Leading zero omitted, Abs format (unit mm)*
G04 Created by KiCad (PCBNEW 9.0.4) date 2026-04-05 12:23:48*
%MOMM*%
%LPD*%
G01*
G04 APERTURE LIST*
G04 Aperture macros list*
%AMRoundRect*
0 Rectangle with rounded corners*
0 $1 Rounding radius*
0 $2 $3 $4 $5 $6 $7 $8 $9 X,Y pos of 4 corners*
0 Add a 4 corners polygon primitive as box body*
4,1,4,$2,$3,$4,$5,$6,$7,$8,$9,$2,$3,0*
0 Add four circle primitives for the rounded corners*
1,1,$1+$1,$2,$3*
1,1,$1+$1,$4,$5*
1,1,$1+$1,$6,$7*
1,1,$1+$1,$8,$9*
0 Add four rect primitives between the rounded corners*
20,1,$1+$1,$2,$3,$4,$5,0*
20,1,$1+$1,$4,$5,$6,$7,0*
20,1,$1+$1,$6,$7,$8,$9,0*
20,1,$1+$1,$8,$9,$2,$3,0*%
G04 Aperture macros list end*
%ADD10RoundRect,0.250000X-0.650000X1.000000X-0.650000X-1.000000X0.650000X-1.000000X0.650000X1.000000X0*%
%ADD11RoundRect,0.250000X-0.312500X-1.075000X0.312500X-1.075000X0.312500X1.075000X-0.312500X1.075000X0*%
%ADD12RoundRect,0.250000X-1.500000X-0.550000X1.500000X-0.550000X1.500000X0.550000X-1.500000X0.550000X0*%
%ADD13RoundRect,0.250000X-1.075000X0.312500X-1.075000X-0.312500X1.075000X-0.312500X1.075000X0.312500X0*%
%ADD14RoundRect,0.150000X0.150000X-0.587500X0.150000X0.587500X-0.150000X0.587500X-0.150000X-0.587500X0*%
%ADD15RoundRect,0.250000X-1.275000X-1.125000X1.275000X-1.125000X1.275000X1.125000X-1.275000X1.125000X0*%
%ADD16RoundRect,0.250000X-0.850000X-0.350000X0.850000X-0.350000X0.850000X0.350000X-0.850000X0.350000X0*%
%ADD17RoundRect,0.150000X-0.512500X-0.150000X0.512500X-0.150000X0.512500X0.150000X-0.512500X0.150000X0*%
%ADD18RoundRect,0.150000X-0.587500X-0.150000X0.587500X-0.150000X0.587500X0.150000X-0.587500X0.150000X0*%
%ADD19RoundRect,0.150000X-0.150000X0.587500X-0.150000X-0.587500X0.150000X-0.587500X0.150000X0.587500X0*%
%ADD20RoundRect,0.237500X-0.237500X0.300000X-0.237500X-0.300000X0.237500X-0.300000X0.237500X0.300000X0*%
%ADD21RoundRect,0.140000X0.140000X0.170000X-0.140000X0.170000X-0.140000X-0.170000X0.140000X-0.170000X0*%
%ADD22RoundRect,0.250000X1.075000X-0.312500X1.075000X0.312500X-1.075000X0.312500X-1.075000X-0.312500X0*%
%ADD23RoundRect,0.250000X0.312500X1.075000X-0.312500X1.075000X-0.312500X-1.075000X0.312500X-1.075000X0*%
%ADD24RoundRect,0.237500X-0.300000X-0.237500X0.300000X-0.237500X0.300000X0.237500X-0.300000X0.237500X0*%
%ADD25RoundRect,0.250000X0.450000X-0.325000X0.450000X0.325000X-0.450000X0.325000X-0.450000X-0.325000X0*%
%ADD26RoundRect,0.140000X-0.140000X-0.170000X0.140000X-0.170000X0.140000X0.170000X-0.140000X0.170000X0*%
%ADD27RoundRect,0.150000X-0.200000X0.150000X-0.200000X-0.150000X0.200000X-0.150000X0.200000X0.150000X0*%
%ADD28RoundRect,0.150000X-0.825000X-0.150000X0.825000X-0.150000X0.825000X0.150000X-0.825000X0.150000X0*%
%ADD29RoundRect,0.140000X-0.170000X0.140000X-0.170000X-0.140000X0.170000X-0.140000X0.170000X0.140000X0*%
%ADD30RoundRect,0.250000X1.425000X-0.362500X1.425000X0.362500X-1.425000X0.362500X-1.425000X-0.362500X0*%
%ADD31RoundRect,0.150000X-0.150000X-0.200000X0.150000X-0.200000X0.150000X0.200000X-0.150000X0.200000X0*%
%ADD32R,1.400000X1.600000*%
G04 APERTURE END LIST*
D10*
X89942500Y-52129900D03*
X89942500Y-56129900D03*
D11*
X118537500Y-110600000D03*
X121462500Y-110600000D03*
D12*
X121550000Y-123400000D03*
X127150000Y-123400000D03*
D13*
X115095000Y-104737500D03*
X115095000Y-107662500D03*
D14*
X89080000Y-61163400D03*
X90980000Y-61163400D03*
X90030000Y-59288400D03*
D15*
X125519000Y-114613500D03*
X125519000Y-117663500D03*
X128869000Y-114613500D03*
X128869000Y-117663500D03*
D16*
X120894000Y-113858500D03*
X120894000Y-116138500D03*
X120894000Y-118418500D03*
D17*
X106725000Y-83100000D03*
X106725000Y-84050000D03*
X106725000Y-85000000D03*
X109000000Y-85000000D03*
X109000000Y-83100000D03*
D18*
X74312500Y-109800000D03*
X74312500Y-111700000D03*
X76187500Y-110750000D03*
D19*
X91450000Y-115312500D03*
X89550000Y-115312500D03*
X90500000Y-117187500D03*
D20*
X118490000Y-114441500D03*
X118490000Y-116166500D03*
D21*
X61480000Y-107000000D03*
X60520000Y-107000000D03*
D22*
X94435100Y-82234500D03*
X94435100Y-79309500D03*
D23*
X72462500Y-110750000D03*
X69537500Y-110750000D03*
D19*
X92450000Y-111312500D03*
X90550000Y-111312500D03*
X91500000Y-113187500D03*
D24*
X86137500Y-104500000D03*
X87862500Y-104500000D03*
D22*
X94435100Y-68450750D03*
X94435100Y-65525750D03*
D11*
X77537500Y-115500000D03*
X80462500Y-115500000D03*
D21*
X110342500Y-82050000D03*
X109382500Y-82050000D03*
D25*
X94435100Y-86402600D03*
X94435100Y-84352600D03*
D23*
X95962500Y-115500000D03*
X93037500Y-115500000D03*
D22*
X111662500Y-86512500D03*
X111662500Y-83587500D03*
D17*
X65362500Y-109800000D03*
X65362500Y-110750000D03*
X65362500Y-111700000D03*
X67637500Y-111700000D03*
X67637500Y-109800000D03*
D22*
X73750000Y-117462500D03*
X73750000Y-114537500D03*
D11*
X93439500Y-100528000D03*
X96364500Y-100528000D03*
D13*
X115095000Y-99979500D03*
X115095000Y-102904500D03*
D23*
X103984500Y-110586000D03*
X101059500Y-110586000D03*
D26*
X98612000Y-109316000D03*
X99572000Y-109316000D03*
D13*
X124200000Y-102537500D03*
X124200000Y-105462500D03*
D27*
X99948000Y-120068000D03*
X99948000Y-118668000D03*
D10*
X89942500Y-65972250D03*
X89942500Y-69972250D03*
D18*
X108125000Y-87100000D03*
X108125000Y-89000000D03*
X110000000Y-88050000D03*
D19*
X88700000Y-111312500D03*
X86800000Y-111312500D03*
X87750000Y-113187500D03*
X87700000Y-115312500D03*
X85800000Y-115312500D03*
X86750000Y-117187500D03*
D10*
X89942500Y-79756000D03*
X89942500Y-83756000D03*
D28*
X65775000Y-114345000D03*
X65775000Y-115615000D03*
X65775000Y-116885000D03*
X65775000Y-118155000D03*
X70725000Y-118155000D03*
X70725000Y-116885000D03*
X70725000Y-115615000D03*
X70725000Y-114345000D03*
D20*
X114000000Y-61887500D03*
X114000000Y-63612500D03*
D26*
X62520000Y-107000000D03*
X63480000Y-107000000D03*
D29*
X71250000Y-119270000D03*
X71250000Y-120230000D03*
D11*
X93439500Y-107778000D03*
X96364500Y-107778000D03*
D19*
X83950000Y-115312500D03*
X82050000Y-115312500D03*
X83000000Y-117187500D03*
D22*
X92750000Y-120962500D03*
X92750000Y-118037500D03*
D14*
X89080000Y-88789500D03*
X90980000Y-88789500D03*
X90030000Y-86914500D03*
D21*
X73480000Y-119000000D03*
X72520000Y-119000000D03*
D22*
X80750000Y-120962500D03*
X80750000Y-118037500D03*
X84750000Y-121962500D03*
X84750000Y-119037500D03*
D21*
X119880000Y-98400000D03*
X118920000Y-98400000D03*
D30*
X105369000Y-107452500D03*
X105369000Y-101527500D03*
D31*
X122500000Y-98200000D03*
X121100000Y-98200000D03*
D22*
X94435100Y-54671000D03*
X94435100Y-51746000D03*
D32*
X56860000Y-52134000D03*
X56860000Y-60134000D03*
X52360000Y-52134000D03*
X52360000Y-60134000D03*
D25*
X94435100Y-58833400D03*
X94435100Y-56783400D03*
D11*
X78137500Y-110800000D03*
X81062500Y-110800000D03*
D32*
X56896000Y-79502000D03*
X56896000Y-87502000D03*
X52396000Y-79502000D03*
X52396000Y-87502000D03*
X56896000Y-65914000D03*
X56896000Y-73914000D03*
X52396000Y-65914000D03*
X52396000Y-73914000D03*
D22*
X88750000Y-121962500D03*
X88750000Y-119037500D03*
D11*
X111727500Y-110586000D03*
X114652500Y-110586000D03*
X66787500Y-120750000D03*
X69712500Y-120750000D03*
D19*
X84950000Y-111312500D03*
X83050000Y-111312500D03*
X84000000Y-113187500D03*
D27*
X99948000Y-116258000D03*
X99948000Y-114858000D03*
D25*
X94435100Y-72726200D03*
X94435100Y-70676200D03*
D14*
X89080000Y-75005750D03*
X90980000Y-75005750D03*
X90030000Y-73130750D03*
D26*
X109154000Y-109316000D03*
X110114000Y-109316000D03*
M02*
