G04 #@! TF.GenerationSoftware,KiCad,Pcbnew,9.0.4*
G04 #@! TF.CreationDate,2026-04-05T12:23:48-05:00*
G04 #@! TF.ProjectId,Fault Latch 2,4661756c-7420-44c6-9174-636820322e6b,rev?*
G04 #@! TF.SameCoordinates,Original*
G04 #@! TF.FileFunction,Soldermask,Bot*
G04 #@! TF.FilePolarity,Negative*
%FSLAX46Y46*%
G04 Gerber Fmt 4.6, Leading zero omitted, Abs format (unit mm)*
G04 Created by KiCad (PCBNEW 9.0.4) date 2026-04-05 12:23:48*
%MOMM*%
%LPD*%
G01*
G04 APERTURE LIST*
G04 Aperture macros list*
%AMRoundRect*
0 Rectangle with rounded corners*
0 $1 Rounding radius*
0 $2 $3 $4 $5 $6 $7 $8 $9 X,Y pos of 4 corners*
0 Add a 4 corners polygon primitive as box body*
4,1,4,$2,$3,$4,$5,$6,$7,$8,$9,$2,$3,0*
0 Add four circle primitives for the rounded corners*
1,1,$1+$1,$2,$3*
1,1,$1+$1,$4,$5*
1,1,$1+$1,$6,$7*
1,1,$1+$1,$8,$9*
0 Add four rect primitives between the rounded corners*
20,1,$1+$1,$2,$3,$4,$5,0*
20,1,$1+$1,$4,$5,$6,$7,0*
20,1,$1+$1,$6,$7,$8,$9,0*
20,1,$1+$1,$8,$9,$2,$3,0*%
G04 Aperture macros list end*
%ADD10C,1.752600*%
%ADD11C,4.700000*%
%ADD12C,2.000000*%
%ADD13R,2.000000X2.000000*%
%ADD14R,1.130000X1.130000*%
%ADD15C,1.130000*%
%ADD16RoundRect,0.250000X0.550000X-0.550000X0.550000X0.550000X-0.550000X0.550000X-0.550000X-0.550000X0*%
%ADD17C,1.600000*%
%ADD18C,1.700000*%
%ADD19RoundRect,0.250000X0.850000X0.600000X-0.850000X0.600000X-0.850000X-0.600000X0.850000X-0.600000X0*%
%ADD20O,2.200000X1.700000*%
%ADD21RoundRect,0.250000X-0.550000X0.550000X-0.550000X-0.550000X0.550000X-0.550000X0.550000X0.550000X0*%
%ADD22RoundRect,0.250000X-0.850000X-0.600000X0.850000X-0.600000X0.850000X0.600000X-0.850000X0.600000X0*%
%ADD23RoundRect,0.250000X-0.550000X-0.550000X0.550000X-0.550000X0.550000X0.550000X-0.550000X0.550000X0*%
%ADD24RoundRect,0.237500X0.237500X-0.300000X0.237500X0.300000X-0.237500X0.300000X-0.237500X-0.300000X0*%
%ADD25RoundRect,0.250000X1.075000X-0.312500X1.075000X0.312500X-1.075000X0.312500X-1.075000X-0.312500X0*%
%ADD26RoundRect,0.150000X-0.587500X-0.150000X0.587500X-0.150000X0.587500X0.150000X-0.587500X0.150000X0*%
%ADD27RoundRect,0.140000X-0.140000X-0.170000X0.140000X-0.170000X0.140000X0.170000X-0.140000X0.170000X0*%
%ADD28RoundRect,0.250000X0.312500X1.075000X-0.312500X1.075000X-0.312500X-1.075000X0.312500X-1.075000X0*%
%ADD29RoundRect,0.140000X0.140000X0.170000X-0.140000X0.170000X-0.140000X-0.170000X0.140000X-0.170000X0*%
%ADD30RoundRect,0.250000X-1.075000X0.312500X-1.075000X-0.312500X1.075000X-0.312500X1.075000X0.312500X0*%
%ADD31RoundRect,0.250000X0.475000X-0.337500X0.475000X0.337500X-0.475000X0.337500X-0.475000X-0.337500X0*%
%ADD32RoundRect,0.150000X-0.150000X0.587500X-0.150000X-0.587500X0.150000X-0.587500X0.150000X0.587500X0*%
G04 APERTURE END LIST*
D10*
X115316600Y-115341902D03*
X112816600Y-115341902D03*
X110316600Y-115341902D03*
X107816600Y-115341902D03*
X105316600Y-115341902D03*
X102816600Y-115341902D03*
X115316600Y-117841902D03*
X112816600Y-117841902D03*
X110316600Y-117841902D03*
X107816600Y-117841902D03*
X105316600Y-117841902D03*
X102816600Y-117841902D03*
D11*
X127200000Y-131600000D03*
D12*
X65189500Y-59692500D03*
X68689500Y-52192500D03*
X61689500Y-52192500D03*
D13*
X85189500Y-52192500D03*
D12*
X85189500Y-59692500D03*
D14*
X55310000Y-108710000D03*
D15*
X55310000Y-111250000D03*
X55310000Y-113790000D03*
X55310000Y-116330000D03*
X55310000Y-118870000D03*
X55310000Y-121410000D03*
X55310000Y-123950000D03*
X55310000Y-126490000D03*
X63250000Y-126490000D03*
X63250000Y-123950000D03*
X63250000Y-121410000D03*
X63250000Y-118870000D03*
X63250000Y-116330000D03*
X63250000Y-113790000D03*
X63250000Y-111250000D03*
X63250000Y-108710000D03*
D16*
X99067000Y-107787000D03*
D17*
X101607000Y-107787000D03*
X101607000Y-100167000D03*
X99067000Y-100167000D03*
D18*
X54507429Y-104000000D03*
X54507429Y-96500000D03*
D19*
X61687429Y-104000000D03*
D20*
X61687429Y-101500000D03*
X61687429Y-99000000D03*
X61687429Y-96500000D03*
D21*
X86040000Y-95000000D03*
D17*
X83500000Y-95000000D03*
X80960000Y-95000000D03*
X78420000Y-95000000D03*
X75880000Y-95000000D03*
X73340000Y-95000000D03*
X70800000Y-95000000D03*
X70800000Y-102620000D03*
X73340000Y-102620000D03*
X75880000Y-102620000D03*
X78420000Y-102620000D03*
X80960000Y-102620000D03*
X83500000Y-102620000D03*
X86040000Y-102620000D03*
D16*
X109121000Y-107787000D03*
D17*
X111661000Y-107787000D03*
X111661000Y-100167000D03*
X109121000Y-100167000D03*
D11*
X50600000Y-131600000D03*
D21*
X121075000Y-100195000D03*
D17*
X118535000Y-100195000D03*
X118535000Y-107815000D03*
X121075000Y-107815000D03*
D11*
X50600000Y-46600000D03*
D12*
X65189500Y-87124500D03*
X68689500Y-79624500D03*
X61689500Y-79624500D03*
D13*
X85189500Y-79624500D03*
D12*
X85189500Y-87124500D03*
X65189500Y-73453800D03*
X68689500Y-65953800D03*
X61689500Y-65953800D03*
D13*
X85189500Y-65953800D03*
D12*
X85189500Y-73453800D03*
D18*
X126944000Y-92750000D03*
X126944000Y-95250000D03*
D22*
X119764000Y-92750000D03*
D20*
X119764000Y-95250000D03*
D23*
X104445000Y-61810000D03*
D17*
X104445000Y-64350000D03*
X104445000Y-66890000D03*
X104445000Y-69430000D03*
X104445000Y-71970000D03*
X104445000Y-74510000D03*
X104445000Y-77050000D03*
X104445000Y-79590000D03*
X112065000Y-79590000D03*
X112065000Y-77050000D03*
X112065000Y-74510000D03*
X112065000Y-71970000D03*
X112065000Y-69430000D03*
X112065000Y-66890000D03*
X112065000Y-64350000D03*
X112065000Y-61810000D03*
D11*
X127200000Y-46600000D03*
D24*
X63246000Y-85444500D03*
X63246000Y-83719500D03*
D25*
X69088000Y-75122500D03*
X69088000Y-72197500D03*
D26*
X64340500Y-81976000D03*
X64340500Y-80076000D03*
X66215500Y-81026000D03*
D27*
X66320000Y-108500000D03*
X67280000Y-108500000D03*
D28*
X76212500Y-83312000D03*
X73287500Y-83312000D03*
D29*
X69730000Y-113000000D03*
X68770000Y-113000000D03*
D25*
X60198000Y-88838500D03*
X60198000Y-85913500D03*
D30*
X56896000Y-54671500D03*
X56896000Y-57596500D03*
D25*
X69088000Y-88838500D03*
X69088000Y-85913500D03*
D26*
X64340500Y-68260000D03*
X64340500Y-66360000D03*
X66215500Y-67310000D03*
D25*
X53340000Y-85028500D03*
X53340000Y-82103500D03*
D24*
X118490000Y-122262500D03*
X118490000Y-120537500D03*
X63246000Y-58012500D03*
X63246000Y-56287500D03*
D31*
X116712000Y-122691500D03*
X116712000Y-120616500D03*
D32*
X59502000Y-54688500D03*
X61402000Y-54688500D03*
X60452000Y-56563500D03*
X59502000Y-82120500D03*
X61402000Y-82120500D03*
X60452000Y-83995500D03*
D30*
X56896000Y-82103500D03*
X56896000Y-85028500D03*
D26*
X64340500Y-54544000D03*
X64340500Y-52644000D03*
X66215500Y-53594000D03*
D27*
X71120000Y-113000000D03*
X72080000Y-113000000D03*
D25*
X69088000Y-61406500D03*
X69088000Y-58481500D03*
D32*
X59502000Y-68470500D03*
X61402000Y-68470500D03*
X60452000Y-70345500D03*
D28*
X76212500Y-69342000D03*
X73287500Y-69342000D03*
D25*
X53340000Y-57596500D03*
X53340000Y-54671500D03*
D30*
X56896000Y-68387500D03*
X56896000Y-71312500D03*
D25*
X60198000Y-61406500D03*
X60198000Y-58481500D03*
X53340000Y-71312500D03*
X53340000Y-68387500D03*
D24*
X63246000Y-71728500D03*
X63246000Y-70003500D03*
D25*
X60198000Y-75122500D03*
X60198000Y-72197500D03*
D28*
X76212500Y-55626000D03*
X73287500Y-55626000D03*
M02*
