G04 #@! TF.GenerationSoftware,KiCad,Pcbnew,9.0.4*
G04 #@! TF.CreationDate,2026-04-05T12:23:48-05:00*
G04 #@! TF.ProjectId,Fault Latch 2,4661756c-7420-44c6-9174-636820322e6b,rev?*
G04 #@! TF.SameCoordinates,Original*
G04 #@! TF.FileFunction,Paste,Bot*
G04 #@! TF.FilePolarity,Positive*
%FSLAX46Y46*%
G04 Gerber Fmt 4.6, Leading zero omitted, Abs format (unit mm)*
G04 Created by KiCad (PCBNEW 9.0.4) date 2026-04-05 12:23:48*
%MOMM*%
%LPD*%
G01*
G04 APERTURE LIST*
G04 Aperture macros list*
%AMRoundRect*
0 Rectangle with rounded corners*
0 $1 Rounding radius*
0 $2 $3 $4 $5 $6 $7 $8 $9 X,Y pos of 4 corners*
0 Add a 4 corners polygon primitive as box body*
4,1,4,$2,$3,$4,$5,$6,$7,$8,$9,$2,$3,0*
0 Add four circle primitives for the rounded corners*
1,1,$1+$1,$2,$3*
1,1,$1+$1,$4,$5*
1,1,$1+$1,$6,$7*
1,1,$1+$1,$8,$9*
0 Add four rect primitives between the rounded corners*
20,1,$1+$1,$2,$3,$4,$5,0*
20,1,$1+$1,$4,$5,$6,$7,0*
20,1,$1+$1,$6,$7,$8,$9,0*
20,1,$1+$1,$8,$9,$2,$3,0*%
G04 Aperture macros list end*
%ADD10RoundRect,0.237500X0.237500X-0.300000X0.237500X0.300000X-0.237500X0.300000X-0.237500X-0.300000X0*%
%ADD11RoundRect,0.250000X1.075000X-0.312500X1.075000X0.312500X-1.075000X0.312500X-1.075000X-0.312500X0*%
%ADD12RoundRect,0.150000X-0.587500X-0.150000X0.587500X-0.150000X0.587500X0.150000X-0.587500X0.150000X0*%
%ADD13RoundRect,0.140000X-0.140000X-0.170000X0.140000X-0.170000X0.140000X0.170000X-0.140000X0.170000X0*%
%ADD14RoundRect,0.250000X0.312500X1.075000X-0.312500X1.075000X-0.312500X-1.075000X0.312500X-1.075000X0*%
%ADD15RoundRect,0.140000X0.140000X0.170000X-0.140000X0.170000X-0.140000X-0.170000X0.140000X-0.170000X0*%
%ADD16RoundRect,0.250000X-1.075000X0.312500X-1.075000X-0.312500X1.075000X-0.312500X1.075000X0.312500X0*%
%ADD17RoundRect,0.250000X0.475000X-0.337500X0.475000X0.337500X-0.475000X0.337500X-0.475000X-0.337500X0*%
%ADD18RoundRect,0.150000X-0.150000X0.587500X-0.150000X-0.587500X0.150000X-0.587500X0.150000X0.587500X0*%
G04 APERTURE END LIST*
D10*
X63246000Y-85444500D03*
X63246000Y-83719500D03*
D11*
X69088000Y-75122500D03*
X69088000Y-72197500D03*
D12*
X64340500Y-81976000D03*
X64340500Y-80076000D03*
X66215500Y-81026000D03*
D13*
X66320000Y-108500000D03*
X67280000Y-108500000D03*
D14*
X76212500Y-83312000D03*
X73287500Y-83312000D03*
D15*
X69730000Y-113000000D03*
X68770000Y-113000000D03*
D11*
X60198000Y-88838500D03*
X60198000Y-85913500D03*
D16*
X56896000Y-54671500D03*
X56896000Y-57596500D03*
D11*
X69088000Y-88838500D03*
X69088000Y-85913500D03*
D12*
X64340500Y-68260000D03*
X64340500Y-66360000D03*
X66215500Y-67310000D03*
D11*
X53340000Y-85028500D03*
X53340000Y-82103500D03*
D10*
X118490000Y-122262500D03*
X118490000Y-120537500D03*
X63246000Y-58012500D03*
X63246000Y-56287500D03*
D17*
X116712000Y-122691500D03*
X116712000Y-120616500D03*
D18*
X59502000Y-54688500D03*
X61402000Y-54688500D03*
X60452000Y-56563500D03*
X59502000Y-82120500D03*
X61402000Y-82120500D03*
X60452000Y-83995500D03*
D16*
X56896000Y-82103500D03*
X56896000Y-85028500D03*
D12*
X64340500Y-54544000D03*
X64340500Y-52644000D03*
X66215500Y-53594000D03*
D13*
X71120000Y-113000000D03*
X72080000Y-113000000D03*
D11*
X69088000Y-61406500D03*
X69088000Y-58481500D03*
D18*
X59502000Y-68470500D03*
X61402000Y-68470500D03*
X60452000Y-70345500D03*
D14*
X76212500Y-69342000D03*
X73287500Y-69342000D03*
D11*
X53340000Y-57596500D03*
X53340000Y-54671500D03*
D16*
X56896000Y-68387500D03*
X56896000Y-71312500D03*
D11*
X60198000Y-61406500D03*
X60198000Y-58481500D03*
X53340000Y-71312500D03*
X53340000Y-68387500D03*
D10*
X63246000Y-71728500D03*
X63246000Y-70003500D03*
D11*
X60198000Y-75122500D03*
X60198000Y-72197500D03*
D14*
X76212500Y-55626000D03*
X73287500Y-55626000D03*
M02*
